<svg xmlns="http://www.w3.org/2000/svg" viewBox="0 0 64 64" width="64" height="64">
  <rect width="64" height="64" fill="#f5e6d0"/>
  <!-- Chef hat base / band -->
  <rect x="14" y="32" width="36" height="8" rx="2" fill="#d8d0c0"/>
  <!-- Chef hat puffy top -->
  <rect x="16" y="18" width="32" height="16" rx="6" fill="#f0ece0"/>
  <rect x="16" y="18" width="14" height="16" rx="6" fill="#f8f4ec"/>
  <rect x="34" y="18" width="14" height="16" rx="6" fill="#f8f4ec"/>
  <rect x="22" y="16" width="20" height="14" rx="6" fill="#f0ece0"/>
  <rect x="26" y="14" width="12" height="12" rx="6" fill="#f8f4ec"/>
  <!-- Face area -->
  <rect x="18" y="40" width="28" height="18" rx="3" fill="#f5dcc0"/>
  <!-- Eyes -->
  <rect x="22" y="44" width="4" height="4" rx="1" fill="#4a3a2a"/>
  <rect x="38" y="44" width="4" height="4" rx="1" fill="#4a3a2a"/>
  <!-- Eye highlights -->
  <rect x="23" y="44" width="2" height="2" fill="#f5f0e8"/>
  <rect x="39" y="44" width="2" height="2" fill="#f5f0e8"/>
  <!-- Smile -->
  <rect x="28" y="50" width="8" height="3" rx="1" fill="#c07050"/>
  <!-- Rosy cheeks -->
  <rect x="18" y="48" width="4" height="4" rx="2" fill="#f0a888" opacity="0.6"/>
  <rect x="42" y="48" width="4" height="4" rx="2" fill="#f0a888" opacity="0.6"/>
</svg>
