<svg xmlns="http://www.w3.org/2000/svg" viewBox="0 0 64 64" width="64" height="64">
  <rect width="64" height="64" fill="#f5e6d0"/>
  <!-- Plate -->
  <rect x="6" y="28" width="52" height="30" rx="4" fill="#e8d5b7"/>
  <rect x="10" y="32" width="44" height="22" rx="3" fill="#f0e0c8"/>
  <!-- Chicken drumstick 1 -->
  <rect x="16" y="34" width="10" height="10" rx="2" fill="#b8743a"/>
  <rect x="18" y="32" width="6" height="4" rx="1" fill="#c4863e"/>
  <rect x="20" y="30" width="4" height="3" fill="#d4a45a"/>
  <!-- Bone 1 -->
  <rect x="22" y="40" width="3" height="6" fill="#e8dcc8"/>
  <rect x="23" y="45" width="2" height="4" fill="#e0d4c0"/>
  <!-- Chicken drumstick 2 -->
  <rect x="34" y="36" width="10" height="10" rx="2" fill="#b8743a"/>
  <rect x="36" y="34" width="6" height="4" rx="1" fill="#c4863e"/>
  <rect x="38" y="32" width="4" height="3" fill="#d4a45a"/>
  <!-- Bone 2 -->
  <rect x="40" y="42" width="3" height="6" fill="#e8dcc8"/>
  <rect x="41" y="47" width="2" height="4" fill="#e0d4c0"/>
  <!-- Glaze highlights -->
  <rect x="18" y="36" width="4" height="2" fill="#d09050"/>
  <rect x="36" y="38" width="4" height="2" fill="#d09050"/>
</svg>
